HIERARCHY
ROOT root
{
	OFFSET	0	13.1	24.9
	CHANNELS 6  Xposition Yposition Zposition Xrotation Yrotation Zrotation
	JOINT spine_1
	{
		OFFSET	0	9.99999	0
		CHANNELS 3  Xrotation Yrotation Zrotation
		JOINT spine_2
		{
			OFFSET	0	112	-10
			CHANNELS 3  Xrotation Yrotation Zrotation
			JOINT spine_3
			{
				OFFSET	0	206.5	19.3
				CHANNELS 3  Xrotation Yrotation Zrotation
				JOINT spine_4
				{
					OFFSET	0	110.4	14.6
					CHANNELS 3  Xrotation Yrotation Zrotation
					JOINT neck_1
					{
						OFFSET	0	71.8	-50.3
						CHANNELS 3  Xrotation Yrotation Zrotation
						JOINT neck_2
						{
							OFFSET	0	86.2	-25.8
							CHANNELS 3  Xrotation Yrotation Zrotation
							JOINT head_ee
							{
								OFFSET	0	179.8	-8.7
								CHANNELS 3  Xrotation Yrotation Zrotation
								End Site
								{
									OFFSET	1	0	0
								}
							}
						}
					}
					JOINT left_clavicle
					{
						OFFSET	-43.2	22.4	-70.8
						CHANNELS 3  Xrotation Yrotation Zrotation
						JOINT left_shoulder
						{
							OFFSET	-93.9	-5.79999	48.7
							CHANNELS 3  Xrotation Yrotation Zrotation
							JOINT left_elbow
							{
								OFFSET	-291.4	-30.8	15.2
								CHANNELS 3  Xrotation Yrotation Zrotation
								JOINT left_lowarm_twist
								{
									OFFSET	-110.7	-3.89999	13.6
									CHANNELS 3  Xrotation Yrotation Zrotation
									JOINT left_hand
									{
										OFFSET	-110.7	-3.89999	13.6
										CHANNELS 3  Xrotation Yrotation Zrotation
										JOINT left_ee
										{
											OFFSET	-80.8	-5.10001	12.1
											CHANNELS 3  Xrotation Yrotation Zrotation
											End Site
											{
												OFFSET	1	0	0
											}
										}
									}
								}
							}
						}
					}
					JOINT right_clavicle
					{
						OFFSET	43.2	22.4	-70.8
						CHANNELS 3  Xrotation Yrotation Zrotation
						JOINT right_shoulder
						{
							OFFSET	93.9	-5.79999	48.7
							CHANNELS 3  Xrotation Yrotation Zrotation
							JOINT right_elbow
							{
								OFFSET	291.4	-30.8	15.2
								CHANNELS 3  Xrotation Yrotation Zrotation
								JOINT right_lowarm_twist
								{
									OFFSET	110.7	-3.89999	13.6
									CHANNELS 3  Xrotation Yrotation Zrotation
									JOINT right_hand
									{
										OFFSET	110.7	-3.89999	13.6
										CHANNELS 3  Xrotation Yrotation Zrotation
										JOINT right_ee
										{
											OFFSET	80.8	-5.10001	12.1
											CHANNELS 3  Xrotation Yrotation Zrotation
											End Site
											{
												OFFSET	1	0	0
											}
										}
									}
								}
							}
						}
					}
				}
			}
		}
	}
	JOINT left_hip
	{
		OFFSET	-82.8	-127.5	0.300001
		CHANNELS 3  Xrotation Yrotation Zrotation
		JOINT left_knee
		{
			OFFSET	-28.2	-396.7	2.2
			CHANNELS 3  Xrotation Yrotation Zrotation
			JOINT left_ankle
			{
				OFFSET	-11.7	-411.3	35.4
				CHANNELS 3  Xrotation Yrotation Zrotation
				JOINT left_toes
				{
					OFFSET	0	-60	-88.6
					CHANNELS 3  Xrotation Yrotation Zrotation
					JOINT left_foot_ee
					{
						OFFSET	-22.5	-16.5	-42.2
						CHANNELS 3  Xrotation Yrotation Zrotation
						End Site
						{
							OFFSET	1	0	0
						}
					}
				}
			}
		}
	}
	JOINT right_hip
	{
		OFFSET	82.8	-127.5	0.300001
		CHANNELS 3  Xrotation Yrotation Zrotation
		JOINT right_knee
		{
			OFFSET	28.2	-396.7	2.2
			CHANNELS 3  Xrotation Yrotation Zrotation
			JOINT right_ankle
			{
				OFFSET	11.7	-411.3	35.4
				CHANNELS 3  Xrotation Yrotation Zrotation
				JOINT right_toes
				{
					OFFSET	0	-60	-88.6
					CHANNELS 3  Xrotation Yrotation Zrotation
					JOINT right_foot_ee
					{
						OFFSET	22.5	-16.5	-42.2
						CHANNELS 3  Xrotation Yrotation Zrotation
						End Site
						{
							OFFSET	1	0	0
						}
					}
				}
			}
		}
	}
}
MOTION
Frames: 12
Frame Time: 0.02
2038.4 639.153 -469.478 -104.491 -89.12 -102.842 0.130226 0.0810577 -0.827523 0.130597 0.133549 -0.820689 0.128782 0.301337 -0.774962 0.127986 0.175169 -0.812824 -11.0367 9.18739 3.97495 -11.0894 14.7554 6.29239 -0.0 0.0 -0.0 3.64392 24.2056 7.72432 -26.7914 -10.9158 66.5408 0.191454 -5.41789 0.0090587 78.1961 -3.63218 -8.50483 -8.06386 29.9928 -33.5154 -0.0 0.0 -0.0 11.0155 15.097 -21.9607 20.3899 4.39464 -71.3025 1.77171 41.2682 -0.667192 51.0188 1.04271 6.22084 0.825868 -23.853 -14.35 0.0 0.0 0.0 29.8915 11.0585 -6.56125 -5.5138 0.187429 0.825123 3.63835 0.198883 -0.532739 -14.0639 0.0 0.0 -0.0 0.0 -0.0 -20.9468 33.757 -4.37679 4.68612 0.221142 0.684764 39.1438 9.96697 4.95109 -2.33229 0.0 0.0 0.0 0.0 0.0 
2060.06 639.354 -476.254 -102.089 -88.8151 -100.282 0.232298 0.0898837 -0.906671 0.232743 0.147393 -0.899115 0.230538 0.329688 -0.849378 0.229582 0.191413 -0.890783 -10.9833 8.76152 3.92786 -11.0259 13.9731 6.12502 -0.0 0.0 -0.0 3.76232 24.2962 7.8857 -26.5049 -10.8389 67.0659 0.192295 -5.44155 0.00913824 78.6417 -3.68285 -8.53135 -8.07288 29.9632 -33.6104 -0.0 0.0 -0.0 11.172 15.8415 -22.2832 18.2902 4.22761 -69.8808 1.78418 41.4675 -0.675434 50.0418 0.971804 6.11777 0.678644 -26.8366 -14.4384 0.0 0.0 0.0 30.6498 11.2135 -6.94781 -10.169 0.283283 1.53286 5.40967 -0.900672 -0.790186 -11.8953 0.0 0.0 -0.0 0.0 -0.0 -22.5661 33.8667 -3.64299 4.87625 0.231294 0.712158 37.0603 10.6674 4.77763 -3.09672 0.0 0.0 0.0 0.0 0.0 
2082.77 643.694 -480.947 -99.3535 -88.7909 -97.1449 0.0969857 0.0603274 -1.10659 0.0976575 0.130616 -1.10051 0.0953578 0.3573 -1.04906 0.0938711 0.187148 -1.09231 -11.2087 9.70764 3.72835 -11.2874 15.9251 6.22179 -0.0 0.0 -0.0 4.06545 23.8777 8.30407 -24.7523 -11.1165 67.4115 0.211832 -5.99058 0.0110842 79.911 -3.82829 -8.60475 -8.27058 30.2156 -34.663 -0.0 0.0 -0.0 10.8881 14.756 -21.6871 15.1623 4.95282 -69.532 1.84517 42.4245 -0.716201 48.8519 0.887848 5.99064 0.480994 -27.5858 -13.5513 0.0 0.0 0.0 30.4689 10.8052 -7.42195 -13.2685 0.315093 2.00732 6.23061 -1.31063 -0.9088 -9.77897 0.0 0.0 -0.0 0.0 -0.0 -23.6819 34.417 -3.31584 4.69696 0.221718 0.686327 34.1416 14.8091 4.60326 -1.51111 0.0 0.0 0.0 0.0 0.0 
2105.0 647.258 -485.895 -98.6901 -89.1935 -96.1623 -0.00772147 0.0209734 -1.26541 -0.00683609 0.101446 -1.26152 -0.00874023 0.364568 -1.21195 -0.0107509 0.168604 -1.25431 -12.1732 10.579 5.71002 -12.2335 16.4343 8.49168 -0.0 0.0 -0.0 4.48538 23.9174 8.88295 -23.2526 -11.4522 67.5319 0.295111 -8.31729 0.0214575 81.4847 -4.01078 -8.69123 -7.93477 29.9761 -32.6678 -0.0 0.0 -0.0 10.8054 13.9132 -21.5307 12.7101 4.69816 -69.1165 1.86152 42.6762 -0.727256 48.6583 0.874439 5.96979 0.622421 -29.1803 -14.8473 0.0 0.0 0.0 29.9597 10.8956 -6.94921 -15.731 0.322047 2.38505 10.4544 1.65962 -1.49236 -11.4168 0.0 0.0 -0.0 0.0 -0.0 -23.239 34.5439 -4.04532 2.55586 0.113657 0.375682 27.6232 16.0849 3.9252 0.442521 -0.0 -0.0 0.0 0.0 0.0 
2123.84 648.502 -492.655 -95.1612 -89.3619 -92.7032 -0.0617483 -0.00845731 -1.22975 -0.0609096 0.069806 -1.2278 -0.0620645 0.327637 -1.18534 -0.0639994 0.136337 -1.2222 -11.2076 10.1736 6.05326 -11.2131 15.2837 8.57201 -0.0 0.0 -0.0 4.88008 23.6577 9.43827 -21.6314 -11.6991 67.3059 0.309671 -8.72149 0.0236146 81.5227 -4.01522 -8.69326 -7.94174 29.8751 -32.8277 -0.0 0.0 -0.0 10.737 13.6839 -21.3849 10.5439 4.62297 -68.1443 1.79723 41.6746 -0.684091 47.5983 0.802287 5.85487 0.488633 -29.1757 -14.1007 0.0 0.0 0.0 29.5551 8.96894 -6.21765 -19.5474 0.300748 2.97011 14.8263 4.66875 -2.07245 -12.5356 0.0 0.0 -0.0 0.0 -0.0 -23.7056 35.2134 -3.61963 -0.149903 -0.00614342 -0.0221838 24.5806 16.9677 3.58169 1.55802 -0.0 -0.0 0.0 0.0 0.0 
2151.92 654.523 -498.946 -37.5908 -89.625 -34.8717 -0.13002 -0.187396 -1.3556 -0.129003 -0.100764 -1.36478 -0.126042 0.191338 -1.35505 -0.128604 -0.0250479 -1.36826 -12.9791 10.969 6.12265 -13.0612 17.0465 9.11778 -0.0 0.0 -0.0 5.22394 22.7917 9.95571 -20.6191 -12.0022 67.9767 0.3444 -9.68198 0.0291683 82.2019 -4.09473 -8.72898 -7.84093 29.7682 -32.2745 -0.0 0.0 -0.0 10.4067 12.7528 -20.6755 7.12703 4.18358 -67.9331 1.76689 41.1908 -0.664014 46.7006 0.74286 5.75653 0.607267 -29.1774 -14.7618 0.0 0.0 0.0 27.7461 11.3793 -6.71186 -19.0145 0.306063 2.88851 13.061 4.69292 -1.83848 -14.4426 0.0 0.0 -0.0 0.0 -0.0 -23.2212 36.1055 -4.45681 -3.46368 -0.127034 -0.516307 20.9944 18.7544 3.1674 3.10994 -0.0 -0.0 0.0 0.0 0.0 
2175.52 656.561 -504.104 39.3929 -89.7474 42.4381 -0.0833655 -0.142875 -1.51954 -0.0820821 -0.0459041 -1.52555 -0.0802239 0.277916 -1.50073 -0.0833648 0.0374442 -1.52578 -13.3782 10.9863 7.28176 -13.4122 16.4255 10.2707 -0.0 0.0 -0.0 5.63939 22.8791 10.5439 -19.3899 -12.3302 67.5828 0.3683 -10.3398 0.0333231 82.6903 -4.15216 -8.75409 -7.70773 29.7038 -31.4643 -0.0 0.0 -0.0 10.5549 12.1156 -21.0203 5.44946 2.88496 -67.3072 1.48128 36.2682 -0.485156 45.3803 0.65828 5.61024 0.758582 -27.6141 -15.1368 0.0 0.0 0.0 25.6938 11.7305 -6.82263 -19.6808 0.2993 2.99052 19.231 4.91526 -2.63698 -14.9945 0.0 0.0 -0.0 0.0 -0.0 -22.3716 36.9115 -4.91269 -6.93767 -0.222851 -1.04076 13.3014 22.2318 2.15399 2.54573 -0.0 -0.0 0.0 0.0 0.0 
2203.09 664.157 -512.694 36.5697 -89.7301 39.9447 -0.120835 -0.156944 -1.68434 -0.119257 -0.0494624 -1.69092 -0.117002 0.310509 -1.66291 -0.120858 0.0440268 -1.69107 -13.6579 11.3648 7.12614 -13.7279 17.2962 10.2882 -0.0 0.0 -0.0 6.18184 23.6126 11.2681 -18.156 -12.5777 67.5763 0.430968 -12.0513 0.0454919 82.9912 -4.18765 -8.76931 -7.33564 29.5541 -29.2113 -0.0 0.0 -0.0 10.1542 6.79501 -20.1764 3.07911 2.65919 -66.6139 1.42968 35.3049 -0.454985 43.6978 0.555442 5.4211 1.55012 -28.8093 -20.0274 0.0 0.0 0.0 21.4334 8.93035 -5.19723 -16.3035 0.321337 2.47288 22.3962 4.97431 -3.02499 -17.6401 0.0 0.0 -0.0 0.0 -0.0 -22.2058 37.2694 -4.53538 -9.5661 -0.274116 -1.4408 8.25976 23.9721 1.39176 2.65992 -0.0 -0.0 0.0 0.0 0.0 
2229.43 670.738 -516.055 23.9726 -88.7144 28.6954 -0.0144123 -0.147677 -1.76888 -0.012672 -0.0348378 -1.77469 -0.0107787 0.339364 -1.74229 -0.0150102 0.0599874 -1.77401 -13.9814 11.4152 7.06687 -14.069 17.4867 10.301 -0.0 0.0 -0.0 6.60487 24.1062 11.8253 -16.9468 -12.8371 67.009 0.461887 -12.8879 0.0521683 82.1771 -4.09182 -8.7277 -7.48115 29.5786 -30.1208 -0.0 0.0 -0.0 9.66991 4.79183 -19.1154 -0.108274 3.25914 -66.6133 1.3886 34.5211 -0.431472 39.884 0.343243 4.9819 1.40371 -29.5725 -19.3738 0.0 0.0 0.0 18.1178 7.03269 -4.07647 -15.1983 0.321919 2.3033 25.1207 6.19043 -3.34479 -18.4204 0.0 0.0 -0.0 0.0 -0.0 -21.4686 37.8172 -4.94812 -12.3296 -0.308168 -1.86342 0.91203 25.579 0.16055 1.43993 -0.0 -0.0 0.0 0.0 0.0 
2258.79 669.964 -527.36 87.5108 -88.2314 91.5324 0.0727794 -0.106401 -2.00883 0.0750243 0.0216152 -2.01153 0.075202 0.441509 -1.96262 0.0698487 0.126076 -2.00769 -14.0872 10.9054 7.15635 -14.1474 16.4744 10.2339 -0.0 0.0 -0.0 6.92392 24.5666 12.23 -15.2509 -13.5159 66.8275 0.569159 -15.7457 0.078703 81.9995 -4.071 -8.71844 -7.40005 29.5517 -29.6263 -0.0 0.0 -0.0 8.55291 2.88103 -16.7523 -2.65376 2.22401 -67.5197 1.26768 32.1262 -0.365025 38.1773 0.257869 4.78104 1.72577 -29.6571 -21.2546 0.0 0.0 0.0 14.0279 3.66222 -3.62839 -15.0979 0.321809 2.2879 29.9684 7.68614 -3.88608 -20.1586 0.0 0.0 -0.0 0.0 -0.0 -19.9224 35.3005 -7.00108 -18.2149 -0.312613 -2.766 -4.61635 28.8608 -0.859312 0.322011 -0.0 -0.0 0.0 0.0 0.0 
2284.52 675.706 -533.489 87.3404 -87.0957 91.5098 -0.00246454 -0.133753 -2.08085 -5.55353e-05 -0.00110123 -2.08514 0.00106016 0.437318 -2.03879 -0.00472384 0.109914 -2.08225 -14.5587 10.8008 6.81617 -14.6486 16.5601 9.95467 -0.0 0.0 -0.0 7.50469 24.9504 13.0001 -13.954 -14.2277 66.5325 0.647204 -17.7762 0.101213 82.6626 -4.1489 -8.75268 -7.44721 29.6224 -29.8563 -0.0 0.0 -0.0 8.27927 0.606253 -16.16 -4.70578 -0.26167 -66.7422 1.15908 29.8624 -0.309094 36.7243 0.189936 4.60812 1.60191 -29.5113 -20.5008 0.0 0.0 0.0 9.94858 2.6966 -3.21014 -14.0742 0.319155 2.13087 31.7476 7.5191 -4.07352 -20.1237 0.0 0.0 -0.0 0.0 -0.0 -19.1257 34.0815 -8.041 -20.8762 -0.284194 -3.17331 -11.9788 29.6522 -2.2837 -3.17966 0.0 0.0 0.0 0.0 0.0 
2307.29 678.312 -539.349 87.7356 -86.3491 92.1579 -0.0599806 -0.139194 -2.20667 -0.0572715 0.00146946 -2.21105 -0.0560829 0.468485 -2.16087 -0.0625786 0.121423 -2.20772 -13.8255 10.1701 6.20202 -13.8947 15.6063 9.06475 -0.0 0.0 -0.0 8.06185 24.8853 13.7903 -12.8086 -15.7801 66.3261 0.923834 -24.5904 0.201351 84.1439 -4.32432 -8.8259 -7.43834 29.7157 -29.7026 -0.0 0.0 -0.0 7.75539 0.103479 -15.098 -6.4514 -2.27518 -66.3948 0.976397 25.8116 -0.223734 35.8702 0.152065 4.5057 1.81946 -29.6563 -21.801 0.0 0.0 0.0 6.55529 -1.03127 -2.47383 -12.6149 0.310521 1.90714 33.6959 9.61491 -4.27987 -21.7252 0.0 0.0 -0.0 0.0 -0.0 -18.8502 33.2424 -8.02704 -24.4709 -0.215839 -3.72061 -15.2789 29.175 -2.90378 -4.25014 0.0 0.0 0.0 0.0 0.0 
